# xmcd
#
# Track frame offsets: 
#        150
#        8787
#        21673
#        31909
#        41884
#        54183
#        63976
#        76644
#        89863
#        100199
#        109379
#        120906
#        132205
#        142521
#        151938
#        162503
#        171112
#        182523
#        194307
#        204636
#        215175
#        227512
#        239416
#        252011
#        261959
#
# Disc length: 3633 seconds
#
# Revision: 4
# Processed by: cddbd v1.5.2PL0 Copyright (c) Steve Scherf et al.
# Submitted via: ExactAudioCopyFreeDBPlugin 1.0
#
DISCID=520e2f19
DTITLE=Various Artist - Various ‎– Northern Soul. The Early Years. Vo
DTITLE=lume Two. 100 Classic and Rare Tracks
DYEAR=2018
DGENRE=Soul
TTITLE0=Billy Beasley - A Million Teardrops
TTITLE1=Nolan Strong - If I (Could Be With You Tonight)
TTITLE2=Eddie Bo - Every Dog Has His Day
TTITLE3=Blanche Thomas - You Ain't Such A Much
TTITLE4=The Miller Sisters - Dance Close
TTITLE5=Bobby Guy - Good Enough
TTITLE6=Prince Conley - I'm Going Home
TTITLE7=Sherri Taylor and Swingin' Sammy - Oh Lover
TTITLE8=Bobbie Smith and The Dream Girls - Wanted
TTITLE9=Jan Bradley - Mama Didn't Lie
TTITLE10=The Corvells - He's So Fine
TTITLE11=Joe Tex - Boys Will Be Boys
TTITLE12=Buddy Ace - This Little Love Of Mine
TTITLE13=Tiny Topsy - Miss You So
TTITLE14=Mack Starr and The Mellows - Oh My Love
TTITLE15=Jeanette 'Baby' Washington - Let Love Go By
TTITLE16=Sonny Knight - Confidential
TTITLE17=The Volumes - I Love You
TTITLE18=Lenny Johnson - Walk Ginny Walk
TTITLE19=Young Jessie - I Smell A Rat
TTITLE20=Jerry Jackson - Wide Awake In A Dream
TTITLE21=Johnnie Mae Matthews - The Headshrinker
TTITLE22=Chris Kenner - Land Of 1.000 Dances
TTITLE23=Gloria Lynne - You Don't Have To Be A Tower Of Strength
TTITLE24=Grover Mitchell - That's A Good Idea
EXTD=
EXTT0=
EXTT1=
EXTT2=
EXTT3=
EXTT4=
EXTT5=
EXTT6=
EXTT7=
EXTT8=
EXTT9=
EXTT10=
EXTT11=
EXTT12=
EXTT13=
EXTT14=
EXTT15=
EXTT16=
EXTT17=
EXTT18=
EXTT19=
EXTT20=
EXTT21=
EXTT22=
EXTT23=
EXTT24=
PLAYORDER=
